<?xml version="1.0" encoding="UTF-8"?>
<svg xmlns="http://www.w3.org/2000/svg" xmlns:xlink="http://www.w3.org/1999/xlink" viewBox="0 0 48 48" version="1.1" width="48px" height="48px">
<g id="surface1">
<path style=" fill:#E1E7EA;" d="M 6 10 C 6 7.800781 7.800781 6 10 6 L 38 6 C 40.199219 6 42 7.800781 42 10 L 42 38 C 42 40.199219 40.199219 42 38 42 L 10 42 C 7.800781 42 6 40.199219 6 38 Z "/>
<path style=" fill:#1565C0;" d="M 23 24 C 23 27.867188 19.867188 31 16 31 C 12.132813 31 9 27.867188 9 24 C 9 20.132813 12.132813 17 16 17 C 19.867188 17 23 20.132813 23 24 Z "/>
<path style=" fill:#FF4081;" d="M 39 24 C 39 27.867188 35.867188 31 32 31 C 28.132813 31 25 27.867188 25 24 C 25 20.132813 28.132813 17 32 17 C 35.867188 17 39 20.132813 39 24 Z "/>
</g>
</svg>
