<?xml version="1.0" standalone="no"?>
<!DOCTYPE svg PUBLIC "-//W3C//DTD SVG 20010904//EN"
 "http://www.w3.org/TR/2001/REC-SVG-20010904/DTD/svg10.dtd">
<svg version="1.0" xmlns="http://www.w3.org/2000/svg"
 width="225.000000pt" height="224.000000pt" viewBox="0 0 225.000000 224.000000"
 preserveAspectRatio="xMidYMid meet">
<metadata>
Created by potrace 1.15, written by Peter Selinger 2001-2017
</metadata>
<g transform="translate(0.000000,224.000000) scale(0.100000,-0.100000)"
fill="#000000" stroke="none">
<path d="M855 2031 c-56 -25 -139 -121 -179 -206 -66 -139 -70 -172 -70 -640
l-1 -419 -35 -11 c-46 -13 -119 -56 -147 -87 -31 -34 -65 -103 -82 -172 -14
-50 -21 -61 -41 -66 -20 -5 -25 -12 -25 -35 l0 -30 95 0 95 0 3 27 c3 22 -2
30 -25 40 -15 7 -30 13 -31 14 -10 7 31 115 58 151 30 40 124 98 142 87 5 -3
8 -30 8 -60 l0 -54 134 0 134 0 4 -52 c5 -73 0 -88 -29 -88 -21 0 -24 -4 -21
-32 l3 -33 87 -3 c78 -2 88 -1 97 17 15 28 4 49 -30 56 -28 6 -29 8 -29 71 l0
64 150 0 150 0 0 59 0 59 32 -11 c38 -14 110 -82 132 -126 9 -17 19 -51 23
-76 5 -37 3 -44 -9 -40 -22 9 -55 -32 -42 -53 15 -24 175 -30 193 -8 16 20 -1
53 -30 58 -17 2 -25 16 -40 75 -20 82 -51 135 -105 182 -40 36 -107 70 -136
71 -16 0 -18 10 -18 73 0 149 -10 645 -15 728 -8 151 -72 310 -165 407 -77 81
-152 101 -235 63z m165 -437 c62 -53 79 -136 40 -200 -27 -42 -100 -79 -142
-70 -112 22 -163 128 -111 229 35 69 153 91 213 41z m-29 -420 c8 -2 30 -20
49 -39 29 -30 34 -43 38 -92 3 -52 1 -62 -25 -95 -72 -95 -216 -75 -258 35
-21 56 -8 112 36 156 44 45 88 54 160 35z"/>
<path d="M1732 1668 c-9 -9 -12 -105 -12 -371 l0 -360 -130 129 c-72 71 -137
130 -146 132 -19 5 -44 -16 -44 -36 0 -9 71 -87 157 -173 161 -163 189 -182
235 -159 36 19 328 313 328 331 0 21 -25 42 -45 37 -8 -2 -74 -61 -145 -133
l-130 -129 0 356 c0 196 -3 363 -6 372 -7 19 -45 21 -62 4z"/>
<path d="M92 208 c-15 -15 -15 -41 0 -56 16 -16 2029 -18 2059 -2 21 12 25 40
7 58 -17 17 -2049 17 -2066 0z"/>
</g>
</svg>
